PathFileType	4	(X/Y/Z)	D:\TRACE\spotREDO_2-26-24\spot_Both_Motion_3_4-platform.trc
DataRate	CameraRate	NumFrames	NumMarkers	Units	OrigDataRate	OrigDataStartFrame	OrigNumFrames
100.00	100.00	      60	5	mm	100.00	4376	      7000
Frame#	Time	Left_Front			Right_Front			Left_Aft			Right_Aft			Post			
		X1	Y1	Z1	X2	Y2	Z2	X3	Y3	Z3	X4	Y4	Z4	X5	Y5	Z5	

4376	43.750	-693.05225	-77.96964	-590.02277	721.67853	-59.39850	-506.19775	-765.48669	78.23906	618.44061	803.97949	85.70145	623.98547	1.47258	493.41379	-1069.15991	
4377	43.760	-693.07898	-77.71432	-589.82605	721.47961	-58.89590	-506.27832	-765.26581	78.01557	618.46442	804.31732	85.67268	624.05872	1.84677	493.93100	-1068.76868	
4378	43.770	-692.84753	-77.56946	-589.68915	721.46521	-58.57481	-506.27197	-765.15161	77.74748	618.56860	804.35187	85.43908	624.18481	2.25278	494.28970	-1068.51721	
4379	43.780	-692.73193	-77.08883	-589.77509	721.48450	-58.30325	-506.20618	-764.99780	77.20007	618.73962	804.55847	85.11567	624.42950	1.65532	494.79733	-1068.82788	
4380	43.790	-692.61487	-76.85046	-589.70306	721.57434	-58.06213	-506.20764	-764.85205	76.73868	618.95923	804.69849	84.73765	624.58136	1.82988	495.28543	-1068.62476	
4381	43.800	-692.56622	-76.47483	-589.69281	721.75446	-57.87075	-506.08734	-764.93091	76.56025	619.12451	804.70776	84.45333	624.63379	1.80410	496.03238	-1068.43140	
4382	43.810	-692.46991	-76.04556	-589.79755	721.99646	-57.55974	-506.04883	-764.88824	76.34925	619.18506	804.82208	84.09533	624.71393	1.90371	496.72220	-1068.25623	
4383	43.820	-692.30798	-75.70300	-589.74768	722.02423	-57.43806	-505.93213	-764.81781	76.10177	619.25983	804.90753	83.87301	624.78186	2.35729	497.30643	-1067.55286	
4384	43.830	-692.28595	-75.22569	-589.65851	721.98370	-57.10103	-506.01520	-764.68970	75.63428	619.42065	805.10669	83.44649	624.94653	2.30649	497.94260	-1066.95984	
4385	43.840	-692.22723	-74.82930	-589.52228	722.61108	-56.50390	-505.33856	-764.51764	75.29742	619.59875	805.04675	83.13828	625.07776	2.72107	498.56204	-1066.50452	
4386	43.850	-692.20239	-74.38364	-589.33630	722.71204	-56.38860	-505.24088	-764.52075	74.62946	619.84198	805.02136	82.43300	625.22571	2.76737	499.39886	-1065.47974	
4387	43.860	-692.20264	-74.01031	-589.32745	722.58484	-55.97575	-505.27194	-764.55756	74.22349	619.98499	805.07263	82.03964	625.28082	2.25091	500.38861	-1065.28760	
4388	43.870	-692.17706	-73.52943	-589.34265	722.77307	-55.49200	-505.25934	-764.39246	74.02203	620.11987	805.19983	81.63065	625.45068	2.53440	501.05151	-1064.63489	
4389	43.880	-692.12048	-73.01392	-589.25568	722.63422	-54.85480	-505.26389	-764.24756	73.55859	620.38696	805.33716	81.13148	625.68976	2.71641	501.89471	-1064.13013	
4390	43.890	-692.09393	-72.68379	-589.15625	722.73309	-54.50834	-504.91391	-764.48401	73.52723	620.38477	805.56677	80.87199	625.90173	2.53709	502.79163	-1063.46399	
4391	43.900	-691.85968	-72.18176	-589.11218	722.86102	-54.05244	-504.77310	-764.17676	73.11191	620.56329	805.48547	80.62437	625.99292	2.61501	503.54712	-1063.24890	
4392	43.910	-691.65234	-71.96980	-589.04877	722.92023	-53.74329	-504.82654	-764.02875	72.17503	620.71326	805.41962	80.14707	626.19598	3.07875	504.12415	-1063.22607	
4393	43.920	-691.61530	-71.53162	-589.04340	723.12085	-53.64195	-504.89133	-764.12909	71.66454	620.88031	805.61499	79.45141	626.26825	3.24098	504.79919	-1063.16077	
4394	43.930	-691.63098	-70.95264	-588.98810	723.10492	-53.13149	-504.86124	-764.03552	71.27993	621.10059	805.63959	79.04230	626.53668	2.91035	505.66476	-1062.18127	
4395	43.940	-691.67163	-70.51371	-588.93323	723.14716	-52.70206	-504.72162	-763.99078	71.16010	621.16821	805.77423	78.71889	626.73346	3.22647	506.10080	-1061.78284	
4396	43.950	-691.61316	-70.05775	-588.83411	723.30432	-52.43978	-504.55234	-763.90637	70.98785	621.29883	805.75110	78.58591	626.90186	3.27899	507.20386	-1061.19141	
4397	43.960	-691.55493	-69.77329	-588.84021	723.37213	-51.94688	-504.31003	-763.78912	70.47038	621.53278	805.78284	78.25878	626.88904	3.32252	507.74179	-1060.74390	
4398	43.970	-691.51056	-69.55331	-588.79474	723.86847	-51.91701	-504.26782	-763.59314	69.92453	621.79761	805.73456	77.82056	627.08533	3.03253	508.32126	-1060.41504	
4399	43.980	-691.37860	-69.28069	-588.67029	723.97467	-51.80041	-504.23486	-763.44263	69.47111	621.84338	805.95831	77.27374	627.25488	3.05478	509.06396	-1059.93713	
4400	43.990	-691.18799	-68.89973	-588.59839	723.53296	-51.26004	-504.35583	-763.51276	69.21223	621.90601	806.10065	76.87321	627.37506	3.30870	509.60052	-1059.28113	
4401	44.000	-691.07990	-68.41113	-588.58838	723.77051	-51.08194	-504.42624	-763.53827	68.94967	621.94592	806.20044	76.63795	627.51794	3.34470	510.33490	-1058.98242	
4402	44.010	-690.89276	-67.98590	-588.60986	723.76508	-50.40126	-504.27917	-763.43909	68.52005	622.20990	806.23914	76.40702	627.63086	3.41572	511.09683	-1058.55237	
4403	44.020	-690.84503	-67.76918	-588.61902	723.83441	-50.06903	-504.28806	-763.36566	68.16448	622.41931	806.25647	76.16189	627.68457	3.39271	511.59869	-1058.32336	
4404	44.030	-690.90472	-67.45061	-588.61621	723.96191	-49.84940	-504.25638	-763.23389	67.69120	622.56989	806.26923	75.48213	627.97253	3.62692	512.34686	-1058.02478	
4405	44.040	-691.00574	-66.99084	-588.49982	724.16168	-49.65791	-504.30804	-763.13898	67.29971	622.76251	806.26282	74.90224	628.03497	3.48520	513.27704	-1057.49207	
4406	44.050	-690.80457	-66.38726	-588.27649	724.29388	-48.96856	-504.42194	-763.08490	67.01637	622.93573	806.28387	74.51257	628.26965	3.50779	513.64532	-1057.25806	
4407	44.060	-690.56134	-65.85181	-588.29102	724.34222	-49.01190	-504.05896	-762.90356	66.64933	623.14697	806.42889	74.35199	628.41870	3.94582	514.46222	-1056.73816	
4408	44.070	-690.59241	-65.43431	-588.20563	724.40900	-48.48222	-503.90811	-762.91724	66.64567	623.17395	806.70972	74.09934	628.65302	4.40251	515.12079	-1056.03577	
4409	44.080	-690.56000	-65.24380	-588.20654	724.26111	-48.14674	-503.94037	-763.00830	66.10714	623.27411	806.66992	73.64957	628.68475	3.90495	515.96478	-1055.81836	
4410	44.090	-690.63434	-65.00840	-588.18817	724.42041	-47.94727	-503.80811	-762.74261	65.41261	623.37933	807.04987	72.99950	628.89117	4.10045	516.48242	-1055.46448	
4411	44.100	-690.49060	-64.70005	-588.13721	724.53418	-47.55942	-503.77478	-762.61469	65.01341	623.41785	807.11566	72.74523	629.00983	4.37843	517.22723	-1054.46521	
4412	44.110	-690.06500	-64.26355	-588.02002	724.73083	-47.30893	-503.62161	-762.44031	64.76572	623.56982	807.22467	72.50909	629.18439	4.25312	517.91522	-1054.18567	
4413	44.120	-689.76624	-63.90129	-587.94513	724.76862	-46.78695	-503.51959	-762.42029	64.61386	623.72583	807.32434	72.30912	629.38531	4.70552	518.31952	-1053.69348	
4414	44.130	-689.63843	-63.64182	-588.01611	724.71008	-46.44688	-503.62430	-762.26404	64.25755	623.80920	807.45508	72.00478	629.59857	4.72698	518.77081	-1053.32104	
4415	44.140	-689.65173	-63.37199	-588.02429	725.15955	-46.42009	-503.61783	-762.17542	63.93233	623.92023	807.53088	71.61884	629.52563	4.79019	519.47278	-1053.19934	
4416	44.150	-689.76624	-63.09941	-588.02417	724.88434	-46.12725	-503.59644	-762.04468	63.60245	623.98621	807.62506	71.40069	629.52924	4.97987	520.04944	-1052.97607	
4417	44.160	-689.74084	-62.82855	-587.91516	725.05914	-45.97190	-503.55188	-761.76068	63.23634	624.14758	807.72705	71.21338	629.57593	5.04115	520.41809	-1052.89722	
4418	44.170	-689.50085	-62.41814	-587.68958	725.34937	-45.65210	-503.40005	-761.56232	62.98529	624.27905	807.86896	70.96313	629.77997	5.37397	520.83069	-1052.80591	
4419	44.180	-689.32031	-61.96018	-587.55707	725.59570	-45.62235	-503.30441	-761.50458	62.76619	624.40326	807.98444	70.55007	629.95142	5.44051	521.27783	-1052.61279	
4420	44.190	-689.27301	-61.52984	-587.57166	725.43701	-45.04927	-503.31393	-761.59479	62.24136	624.40656	808.00793	70.03505	629.92291	5.51354	521.93036	-1052.39136	
4421	44.200	-689.22754	-61.30167	-587.55145	725.64355	-44.78119	-503.16730	-761.47491	62.06550	624.43146	807.96191	69.69553	630.05194	5.74472	522.33490	-1051.92871	
4422	44.210	-689.12061	-61.17162	-587.65564	725.82971	-44.51484	-503.34149	-761.26263	61.68340	624.63324	808.27185	69.33932	630.05566	5.70186	523.00214	-1051.69104	
4423	44.220	-689.10425	-60.77734	-587.59979	726.00464	-44.26878	-503.20932	-760.96790	61.37649	624.81989	808.46558	69.19205	630.07782	5.51301	523.67310	-1051.13354	
4424	44.230	-688.67993	-60.46866	-587.54266	726.19189	-43.88637	-503.12253	-760.80695	61.18763	624.93726	808.79431	68.96291	630.26331	5.63028	524.16180	-1050.59216	
4425	44.240	-688.52588	-60.05223	-587.42914	726.33972	-43.76441	-502.91086	-760.59753	60.92735	624.97729	809.00555	68.73245	630.34985	6.06576	524.71228	-1050.09509	
4426	44.250	-688.30078	-59.81268	-587.36908	726.57330	-43.71268	-503.00461	-760.31329	60.90371	625.01715	809.17706	68.42107	630.51910	6.72149	525.16693	-1049.39001	
4427	44.260	-688.08496	-59.74199	-587.39520	726.98340	-43.71438	-502.87085	-760.26563	60.55043	625.04181	809.58887	68.17944	630.59686	6.71178	525.41718	-1049.16516	
4428	44.270	-688.00769	-59.63338	-587.34442	726.92590	-43.37358	-502.80429	-760.01642	60.28815	625.20178	809.23883	67.98205	630.65900	6.50068	525.94763	-1048.84631	
4429	44.280	-687.83246	-59.51860	-587.31641	727.17999	-43.15444	-502.68362	-759.79010	60.13404	625.33148	809.44830	67.83564	630.73071	6.67959	526.26910	-1048.65613	
4430	44.290	-687.46869	-59.38829	-587.25519	727.41736	-42.95851	-502.60193	-759.57007	59.81197	625.44946	809.63611	67.72272	630.82141	7.32285	526.61823	-1048.54468	
4431	44.300	-687.15540	-59.15445	-587.12781	727.51636	-42.76396	-502.53790	-759.49408	59.64422	625.51465	809.97656	67.45770	630.86285	7.55416	526.95050	-1048.59875	
4432	44.310	-686.93951	-58.93266	-587.16119	727.55780	-42.40976	-502.73758	-759.42871	59.68830	625.42554	810.25305	67.19274	630.94366	7.96473	527.04321	-1049.21155	
4433	44.320	-686.68524	-58.69846	-587.18683	727.83582	-42.27343	-502.84824	-759.24567	59.57355	625.55908	810.33008	66.98065	631.00665	8.21176	527.28796	-1049.05786	
4434	44.330	-686.55005	-58.52965	-587.11206	728.01965	-42.05770	-502.83536	-759.00085	59.10218	625.68658	810.50916	66.86793	631.02167	7.61793	527.75189	-1048.76050	
4435	44.340	-686.45093	-58.25301	-587.10840	728.22516	-41.84454	-502.58768	-758.78156	59.03357	625.72424	810.65564	66.78715	631.07715	7.76118	528.12524	-1048.60449	
